<svg xmlns="http://www.w3.org/2000/svg" xmlns:xlink="http://www.w3.org/1999/xlink" viewBox="0 0 344.69 225.12"><defs><style>.cls-1,.cls-2,.cls-3,.cls-4{stroke:#fff;stroke-miterlimit:10;stroke-width:0.25px;}.cls-1{fill:url(#Dégradé_sans_nom_9);}.cls-2{fill:url(#Dégradé_sans_nom_78);}.cls-3{fill:url(#Dégradé_sans_nom_69);}.cls-4{fill:url(#Dégradé_sans_nom_83);}.cls-10,.cls-5,.cls-6,.cls-7,.cls-8,.cls-9{fill:#c1ce49;}.cls-5{filter:url(#filter);}.cls-6{filter:url(#filter-2);}.cls-7{filter:url(#filter-3);}.cls-8{filter:url(#filter-4);}.cls-9{filter:url(#filter-5);}.cls-10{filter:url(#filter-6);}.cls-11{fill:#1c32a0;filter:url(#filter-7);}</style><radialGradient id="Dégradé_sans_nom_9" cx="121.53" cy="111.44" fx="87.45532688250279" fy="100.90509020990123" r="35.66" gradientUnits="userSpaceOnUse"><stop offset="0.51" stop-color="#38b6ff"/><stop offset="0.84" stop-color="#4988ff"/><stop offset="1" stop-color="#5271ff"/></radialGradient><radialGradient id="Dégradé_sans_nom_78" cx="122.25" cy="115.64" r="168.78" gradientUnits="userSpaceOnUse"><stop offset="0" stop-color="#fff"/><stop offset="0.21" stop-color="#ff914d"/><stop offset="0.32" stop-color="#f7911f"/><stop offset="0.38" stop-color="#f29100"/></radialGradient><radialGradient id="Dégradé_sans_nom_69" cx="178.73" cy="107.22" r="36.67" gradientUnits="userSpaceOnUse"><stop offset="0" stop-color="#e69f9f"/><stop offset="0.27" stop-color="#e08282"/><stop offset="0.89" stop-color="#d85757"/></radialGradient><radialGradient id="Dégradé_sans_nom_83" cx="149.99" cy="114.53" r="329.03" gradientUnits="userSpaceOnUse"><stop offset="0.04" stop-color="#fff"/><stop offset="0.21" stop-color="#72838e"/><stop offset="0.51" stop-color="#2f4858"/></radialGradient><filter id="filter" x="161.81" y="16.08" width="182.88" height="182.4" filterUnits="userSpaceOnUse"><feOffset dx="6" dy="2" input="SourceAlpha"/><feGaussianBlur stdDeviation="2" result="blur"/><feFlood/><feComposite operator="in" in2="blur"/><feComposite in="SourceGraphic"/></filter><filter id="filter-2" x="85.92" y="92.62" width="52.08" height="44.4" filterUnits="userSpaceOnUse"><feOffset dx="6" dy="2" input="SourceAlpha"/><feGaussianBlur stdDeviation="2" result="blur-2"/><feFlood/><feComposite operator="in" in2="blur-2"/><feComposite in="SourceGraphic"/></filter><filter id="filter-3" x="121.92" y="88.3" width="46.56" height="48.24" filterUnits="userSpaceOnUse"><feOffset dx="6" dy="2" input="SourceAlpha"/><feGaussianBlur stdDeviation="2" result="blur-3"/><feFlood/><feComposite operator="in" in2="blur-3"/><feComposite in="SourceGraphic"/></filter><filter id="filter-4" x="141.6" y="79.42" width="18.96" height="18.48" filterUnits="userSpaceOnUse"><feOffset dx="6" dy="2" input="SourceAlpha"/><feGaussianBlur stdDeviation="2" result="blur-4"/><feFlood/><feComposite operator="in" in2="blur-4"/><feComposite in="SourceGraphic"/></filter><filter id="filter-5" x="141.6" y="46.54" width="82.8" height="115.2" filterUnits="userSpaceOnUse"><feOffset dx="6" dy="2" input="SourceAlpha"/><feGaussianBlur stdDeviation="2" result="blur-5"/><feFlood/><feComposite operator="in" in2="blur-5"/><feComposite in="SourceGraphic"/></filter><filter id="filter-6" x="0" y="40.54" width="119.04" height="141.36" filterUnits="userSpaceOnUse"><feOffset dx="6" dy="2" input="SourceAlpha"/><feGaussianBlur stdDeviation="2" result="blur-6"/><feFlood/><feComposite operator="in" in2="blur-6"/><feComposite in="SourceGraphic"/></filter><filter id="filter-7" x="194.45" y="0" width="117.6" height="225.12" filterUnits="userSpaceOnUse"><feOffset dx="6" dy="2" input="SourceAlpha"/><feGaussianBlur stdDeviation="2" result="blur-7"/><feFlood/><feComposite operator="in" in2="blur-7"/><feComposite in="SourceGraphic"/></filter></defs><g id="Calque_8" data-name="Calque 8"><path class="cls-1" d="M127.85,67.73v87.41a6.32,6.32,0,0,1-8.93,5.76h0a6.32,6.32,0,0,1-3.72-5.76V67.73a6.31,6.31,0,0,1,3.88-5.83h0A6.32,6.32,0,0,1,127.85,67.73Z"/><path class="cls-2" d="M154.33,51.81V171.57a6.33,6.33,0,0,1-9.1,5.69l-1.11-.54a6.33,6.33,0,0,1-3.55-5.69V52.38A6.34,6.34,0,0,1,144,46.74l1.11-.56A6.32,6.32,0,0,1,154.33,51.81Z"/><path class="cls-3" d="M181.17,30V191.76a6.32,6.32,0,0,1-8.86,5.8l-1.48-.65a6.33,6.33,0,0,1-3.79-5.79V30.76a6.33,6.33,0,0,1,3.43-5.62l1.48-.77A6.33,6.33,0,0,1,181.17,30Z"/><path class="cls-4" d="M324.29,110.53c0,57.29-49.85,103.72-111.34,103.72a120.71,120.71,0,0,1-13.39-.74,6.34,6.34,0,0,1-5.67-6.29V13.85a6.34,6.34,0,0,1,5.67-6.29A120.7,120.7,0,0,1,213,6.81C274.44,6.81,324.29,53.25,324.29,110.53Z"/></g><g id="S"><path class="cls-5" d="M331.13,140.3c-2,7.56-6,12.51-9,16.11-1.58,1.92-6.95,8.2-18.14,15.07-3.14,1.93-16.52,9.82-36.95,14.8a152.67,152.67,0,0,1-41.86,4,154.49,154.49,0,0,1-16.51-1.23l-1.1-.17a62.4,62.4,0,0,1-9.63-2.4c-21.66-7.27-38.78-25.27-35.68-29.79,1.55-2.25,5.33-3.21,12-1.88,1.21.25,8.19.59,5.45,3.49-9.34,9.87,3,23.44,24.86,28.7,1.51.36,2.63.61,3.55.8l1.12.21c1.75.31,3,.42,5.93.87,18,2.78,43-1.61,57.74-5.47,3.95-1,7.46-2.1,11.1-3.41a101,101,0,0,0,17.86-8.17,73.28,73.28,0,0,0,16-12A47.29,47.29,0,0,0,326,149.58a42.6,42.6,0,0,0,4.6-11.44,35,35,0,0,0,0-17.17,31.4,31.4,0,0,0-7.25-13.67,35.44,35.44,0,0,0-8.45-6.49,55.32,55.32,0,0,0-11-5,103.12,103.12,0,0,0-13.46-3.7c-2.29-.49-4.11-.83-23.79-3.63l-6.31-.89L255.16,87l-.7-.09c-6.58-.86-8.06-1-10.61-1.33-8.56-1.16-16.6-2.24-25-6.21-5.74-2.69-10.27-4.82-13.88-10a24.58,24.58,0,0,1-3.15-6.27.27.27,0,0,0,0-.14,29.35,29.35,0,0,1-1.13-12.57,27.25,27.25,0,0,1,4-11.16c3.48-5.33,8-7.83,12.35-10.12,1.32-.7,6.24-3.24,17.23-5.65a138.1,138.1,0,0,1,21.77-2.93,149.17,149.17,0,0,1,26.44.81c.84.1,1.66.22,1.66.22l1.39.2.28,0,1.19.19c1.44.25,2.95.54,4.46.87l1.49.32c7.32,1.64,14.28,3.74,14.28,3.74S318,30.17,318,32.16a.92.92,0,0,1,0,.29,1.5,1.5,0,0,1-2.05.91l-1.74-.71c-9.19-3.72-15-6.07-22-7.54l-.32-.06c-.66-.14-1.34-.26-2-.37-1.31-.21-2.57-.38-3.58-.5L284.65,24l-.51-.05-1.43-.16c-12.83-1.4-22.25-1.4-22.25-1.4s-23.2.23-41.66,7.89A29.67,29.67,0,0,0,216,31.6a26.51,26.51,0,0,0-11.23,10.75,29.07,29.07,0,0,0-2.93,10.81,21.73,21.73,0,0,0,0,2.3,22.1,22.1,0,0,0,1.33,5.79,36.29,36.29,0,0,0,1.67,4.47A20.34,20.34,0,0,0,211.27,73c3.42,2.6,9.92,6.28,23.23,9.21,0,0,2.68.59,19.43,3.2l.08,0,1.76.18c1.24.13,3,.34,5.23.6,3.38.39,7.64.94,12,1.58,2.26.33,5.91.88,10.68,1.75a146.88,146.88,0,0,1,15.14,3.21,60.25,60.25,0,0,1,17.58,7.6,36.65,36.65,0,0,1,7,5.58,33,33,0,0,1,7.81,13.47,34.36,34.36,0,0,1,1.19,7.6A42.13,42.13,0,0,1,331.13,140.3Z"/></g><g id="o"><path class="cls-6" d="M111.9,107.42c2-4.51-5.17-13.47-11.07-9.87-7,4.24-9.64,13.32-12.38,19.26-7.66,16.67,5.54,12.93,14.31,7.63,2.83-1.71,6.81-10.29,7.27-10.17,3.58.92,12.87-1.1,14.33-.84,1.28.22,2.85-3.61-.7-2.62C122.84,111,109.29,113.37,111.9,107.42ZM94.4,125.1a2.62,2.62,0,0,1-1.56-.55c-.79-.65-1-1.77-1-3.28A21.26,21.26,0,0,1,95,111.85c2.08-3.5,3.5-5.88,5.27-5.76.84.06,1.93,1.11,4.12,3.21,1.18,1.14,2,1.69,1.92,2.06-.2,2.31-2.18,4.9-6.11,9.91C98.46,123.52,96.43,125.23,94.4,125.1Zm12.27-15.86c-.43.06-.71-.44-1.94-2-1.6-2-2-2.3-2-3a2.21,2.21,0,0,1,1.38-2c1.27-.43,2.5.88,2.69,1.08a4.63,4.63,0,0,1,.8,4.19C107.54,108,107.26,109.14,106.67,109.24Z"/></g><g id="i"><path class="cls-7" d="M155.23,113.57c1.07.54,1.24,1,.94,2,0,0-1.84,2.15-1.86,2.2-.68,1.87-7.4,8.28-11.9,9.4-32.75,8.14-19.9-22.85-4.65-34.47,1.48-1.13,6.18,2.24,4.42,4.17-6.94,7.64-20.66,30.07-8.54,28.56,5.28-.65,12.57-4.28,15.42-6.44C153.22,115.88,153.39,112.64,155.23,113.57Z"/><path class="cls-8" d="M147.53,88.68a3.42,3.42,0,0,1-3.91.84,3.13,3.13,0,0,1-1.4-1.4c-.66-1.21-.87-3.23.28-4.18s2.61-.37,3.35-.14a3.44,3.44,0,0,1,2.37,1.67A3.14,3.14,0,0,1,147.53,88.68Z"/></g><g id="k"><path class="cls-9" d="M211.72,113.76a50.15,50.15,0,0,1-13.81,12,51.29,51.29,0,0,1-7.39,3.26,85.28,85.28,0,0,1-11.73,3.07c-7.25,1.37-23.58-3-23.53.69,0,1.91-8.91,18.28-10,20.18.11-.45-1.65.9-2.38.59a2.14,2.14,0,0,1-1.21-2.33,104.5,104.5,0,0,1,4.56-13.58c2.43-5.84,4.29-8.77,5.86-14.51.34-1.21.6-2.37.82-3.45a53.26,53.26,0,0,0,.85-5.9s0-.1,0-.14a9.8,9.8,0,0,0,2.13-1.3,10.17,10.17,0,0,0,2.7-3.35c2.69-5.11,12.08-26.2,18.33-36.75.7-1.18,2-3.27,4.56-7.44,2-3.2,4.62-6,6.14-9.49.27-.61,1.86-4.27,3.52-4.57.88-.16,3.43,1.08,3.77,1.82a.27.27,0,0,1,0,.14c0,.56.36,1.61.12,1.95a12.73,12.73,0,0,1-2.46,2.88c-.43.38-4.93,5.52-6.24,7.4-1.8,2.58-8.75,15.58-17.53,34.23-.56,1.8-1.35,4-1.91,5.77,7.07-3.46,13.17-6.72,20.69-8.94a6.56,6.56,0,0,1,3.25-.21,4.25,4.25,0,0,1,1.86.74,3.87,3.87,0,0,1,1.3,4.28c-.53,1.4-4.56,4-5.93,4-2.72,2.69.84-5.65.84-2.62,0,.76,1.87.13,2-.66.2-1.28-.33-2.63-1-2.41s-5.52,2.47-8.44,4.05c-7.62,4.14-25.9,19.16-23.35,23.49,3.12,5.3,7.15,2.61,16.93,3.35a39.22,39.22,0,0,0,6-.3c8.86-1.48,13.65-5.22,17-7.64a45.48,45.48,0,0,0,11-11.51c.48.09,3,.7,3.27,1.59A2.19,2.19,0,0,1,211.72,113.76Z"/></g><g id="S-2" data-name="S"><path class="cls-10" d="M82.23,48c-11,3.68-102.3,47.09-77.9,49.47,3.78.37,67.4,4.72,71.3,15.54,1.68,4.66-12.84,1.65-19.79,3.35-46.37,11.35-71.07,46.85-38.66,56.73,24.64,7.52,80.73-46.41,54.91-67.92-8.42-7-20-7.86-22.33-8.5-.21-.06-37.73-3.7-40.19-4-11.1-.74,52.88-25.72,75.85-38.7,14.75-8.34,35.94-10.54,1.33,28.81l-3.07,3.35c-8.15,9.8-5.7,1.08-3.72-.6,3.36-2.85,5.67-3.26,3.78-4.42-6.28-3.85-21.91,24.47-1.1,10.14C92.59,84.34,132.35,31.19,82.23,48ZM68.52,138.31c-7,7.57-33.6,48.36-57.86,24.67-9.52-9.31,11.05-31.78,27.72-37.23C64.26,117.29,87.65,117.74,68.52,138.31Z"/></g><g id="aiguille"><path class="cls-11" d="M255.16,87c-1,2.17-2,4.33-3,6.5l-44,94.35-.51,1.08L194.45,217l14.22-27.94c.18-.35.35-.7.53-1L260.29,87.64ZM299.56,5a2.59,2.59,0,0,0-.32-.42,3.42,3.42,0,0,0-2.93-.46c-1.86.33-5.28,5.63-8.61,13.35l-2,4.28,1.19.19a36.35,36.35,0,0,1,2.14-4.8c8.1-15.4,11.87-12.72,6.22-1.07a45.11,45.11,0,0,1-3.9,6.74,20.37,20.37,0,0,1-1.47,1.84c-2.5,2.75-4.06,2.46-3.58-.5L284.65,24q-14.43,30.82-28.88,61.65c1.24.13,3,.34,5.23.6l6.56-12.89,24.32-48.31.95-1.89,2-4q2.22-4.61,4.42-9.21C299.48,9.33,300.42,6.48,299.56,5Z"/></g></svg>